<svg id="Layer_1" data-name="Layer 1" xmlns="http://www.w3.org/2000/svg" viewBox="0 0 86.06 75.61"><defs><style>.cls-1{fill:#fff;}</style></defs><title>skrol</title><path class="cls-1" d="M40.55,74.56,1.06,36A3.5,3.5,0,0,1,1,31.06L1,31H1a3.5,3.5,0,0,1,5-.11L6,31l34.42,33.6a3.49,3.49,0,0,0,4.95,0l.05-.05,34.7-33.53a3.5,3.5,0,0,1,4.85,0h0a3.52,3.52,0,0,1,.09,5L85,36,45.5,74.47a3.5,3.5,0,0,1-5,.09Z" transform="translate(0.02 0.07)"/><path class="cls-1" d="M40.55,44.56,1.06,6A3.5,3.5,0,0,1,1,1.06L1,1H1A3.5,3.5,0,0,1,6,.9L6,1l34.42,33.6a3.49,3.49,0,0,0,4.95,0l.05,0L80.12.93A3.5,3.5,0,0,1,85,.93h0a3.52,3.52,0,0,1,.09,5L85,6,45.5,44.47a3.5,3.5,0,0,1-5,.09Z" transform="translate(0.02 0.07)"/></svg>