<?xml version="1.0" encoding="utf-8"?>
<!-- Generator: Adobe Illustrator 24.0.2, SVG Export Plug-In . SVG Version: 6.00 Build 0)  -->
<svg version="1.1" id="Layer_1" xmlns="http://www.w3.org/2000/svg" xmlns:xlink="http://www.w3.org/1999/xlink" x="0px" y="0px"
	 viewBox="0 0 86 75.6" style="enable-background:new 0 0 86 75.6;" xml:space="preserve">
<style type="text/css">
	.st0{fill:#FFFFFF;}
</style>
<title>skrol</title>
<path class="st0" d="M6,35.8L38.9,2C40,0.8,42,0.8,43.1,1.9c0.1,0,0.1,0,0.1,0l0,0C44.4,3,44.4,5,43.3,6.1c0,0,0,0-0.1,0.1
	L14.5,35.7c-1.2,1.2-1.1,3.1,0,4.2c0,0,0,0,0.1,0.1l28.6,29.7c1.1,1.2,1.1,3,0,4.1l0,0c-1.1,1.2-3.1,1.2-4.3,0.1l-0.1-0.1L6.1,40
	C4.9,38.9,4.9,36.9,6,35.8L6,35.8z"/>
<path class="st0" d="M31.6,35.8L64.5,2c1.1-1.2,3.1-1.2,4.2-0.1c0.1,0,0.1,0,0.1,0l0,0C70,3,70,5,68.9,6.1c0,0,0,0-0.1,0.1
	L40.1,35.7c-1.2,1.2-1.1,3.1,0,4.2c0,0,0,0,0.1,0.1l28.7,29.7c1.1,1.2,1.1,3,0,4.1l0,0c-1.1,1.2-3.1,1.2-4.3,0.1h-0.1L31.7,40
	C30.5,38.9,30.5,36.9,31.6,35.8L31.6,35.8z"/>
</svg>
