<?xml version="1.0" encoding="utf-8"?>
<!-- Generator: Adobe Illustrator 24.0.2, SVG Export Plug-In . SVG Version: 6.00 Build 0)  -->
<svg version="1.1" id="Layer_1" xmlns="http://www.w3.org/2000/svg" xmlns:xlink="http://www.w3.org/1999/xlink" x="0px" y="0px"
	 viewBox="0 0 86 75.6" style="enable-background:new 0 0 86 75.6;" xml:space="preserve">
<style type="text/css">
	.st0{fill:#FFFFFF;}
</style>
<title>skrol</title>
<path class="st0" d="M40.6,74.6L1.1,36c-1.4-1.3-1.4-3.6-0.1-4.9C1,31,1,31,1,31l0,0c1.3-1.4,3.6-1.4,4.9-0.1c0,0,0,0,0.1,0.1
	l34.4,33.6c1.4,1.4,3.6,1.3,4.9,0c0,0,0,0,0.1-0.1l34.7-33.5c1.4-1.3,3.5-1.3,4.8,0l0,0c1.4,1.3,1.4,3.6,0.1,5c0,0-0.1,0.1-0.1,0.1
	L45.5,74.5C44.2,75.9,41.9,75.9,40.6,74.6C40.6,74.6,40.6,74.6,40.6,74.6z"/>
<path class="st0" d="M40.6,44.6L1.1,6c-1.4-1.3-1.4-3.6-0.1-4.9C1,1,1,1,1,1l0,0c1.3-1.4,3.6-1.4,4.9-0.1c0,0,0,0,0.1,0.1l34.4,33.6
	c1.4,1.4,3.6,1.3,4.9,0c0,0,0,0,0.1-0.1L80.1,0.9c1.4-1.3,3.5-1.3,4.8,0l0,0c1.4,1.3,1.4,3.6,0.1,5C85,5.9,85,6,85,6L45.5,44.5
	C44.2,45.9,41.9,45.9,40.6,44.6C40.6,44.6,40.6,44.6,40.6,44.6z"/>
</svg>
